<?xml version="1.0" encoding="utf-8"?>
<!-- Generator: Adobe Illustrator 17.0.0, SVG Export Plug-In . SVG Version: 6.00 Build 0)  -->
<!DOCTYPE svg PUBLIC "-//W3C//DTD SVG 1.1//EN" "http://www.w3.org/Graphics/SVG/1.1/DTD/svg11.dtd">
<svg version="1.1" id="Layer_1" xmlns="http://www.w3.org/2000/svg" xmlns:xlink="http://www.w3.org/1999/xlink" x="0px" y="0px"
	 width="308.05px" height="44.28px" viewBox="0 0 308.05 44.28" enable-background="new 0 0 308.05 44.28" xml:space="preserve">
<g>
	<path fill="#414042" d="M28.5,38.52c-1.44,1.84-3.26,3.261-5.46,4.26c-2.2,0.999-4.48,1.5-6.84,1.5c-2.241,0-4.35-0.36-6.33-1.08
		c-1.98-0.72-3.7-1.75-5.16-3.09c-1.461-1.339-2.61-2.949-3.45-4.83C0.42,33.4,0,31.3,0,28.98c0-2.319,0.42-4.419,1.26-6.3
		c0.84-1.88,1.989-3.489,3.45-4.83c1.459-1.34,3.18-2.37,5.16-3.09c1.98-0.72,4.089-1.08,6.33-1.08c2.08,0,3.969,0.36,5.67,1.08
		c1.7,0.72,3.14,1.75,4.32,3.09c1.179,1.341,2.089,2.95,2.73,4.83c0.639,1.88,0.96,3.98,0.96,6.3v2.82H9
		c0.36,1.72,1.14,3.09,2.34,4.11c1.2,1.02,2.679,1.53,4.44,1.53c1.479,0,2.73-0.33,3.75-0.99c1.02-0.66,1.91-1.509,2.67-2.55
		L28.5,38.52z M20.88,25.68c0.039-1.52-0.46-2.82-1.5-3.9c-1.041-1.08-2.38-1.62-4.02-1.62c-1,0-1.881,0.16-2.64,0.48
		c-0.76,0.32-1.41,0.73-1.95,1.23c-0.54,0.5-0.96,1.08-1.26,1.74C9.21,24.27,9.04,24.96,9,25.68H20.88z"/>
	<path fill="#414042" d="M32.28,14.4H42l7.38,19.8h0.12l6.84-19.8h9.06L53.88,43.56h-9.54L32.28,14.4z"/>
	<path fill="#414042" d="M96.299,38.52c-1.44,1.84-3.26,3.261-5.46,4.26c-2.2,0.999-4.48,1.5-6.84,1.5c-2.241,0-4.35-0.36-6.33-1.08
		c-1.98-0.72-3.7-1.75-5.16-3.09c-1.461-1.339-2.61-2.949-3.45-4.83c-0.84-1.88-1.26-3.98-1.26-6.3c0-2.319,0.42-4.419,1.26-6.3
		c0.84-1.88,1.989-3.489,3.45-4.83c1.459-1.34,3.18-2.37,5.16-3.09c1.98-0.72,4.089-1.08,6.33-1.08c2.08,0,3.969,0.36,5.67,1.08
		c1.7,0.72,3.14,1.75,4.32,3.09c1.179,1.341,2.089,2.95,2.73,4.83c0.639,1.88,0.96,3.98,0.96,6.3v2.82h-20.88
		c0.36,1.72,1.14,3.09,2.34,4.11c1.2,1.02,2.679,1.53,4.44,1.53c1.479,0,2.73-0.33,3.75-0.99c1.02-0.66,1.91-1.509,2.67-2.55
		L96.299,38.52z M88.68,25.68c0.039-1.52-0.46-2.82-1.5-3.9c-1.041-1.08-2.38-1.62-4.02-1.62c-1,0-1.881,0.16-2.64,0.48
		c-0.76,0.32-1.41,0.73-1.95,1.23c-0.54,0.5-0.96,1.08-1.26,1.74c-0.3,0.66-0.471,1.35-0.51,2.07H88.68z"/>
	<path fill="#414042" d="M103.139,14.4h9v4.68h0.12c0.96-1.8,2.1-3.15,3.42-4.05c1.32-0.9,2.979-1.35,4.98-1.35
		c0.52,0,1.039,0.021,1.559,0.06c0.52,0.04,1,0.12,1.441,0.24v8.22c-0.641-0.2-1.271-0.35-1.891-0.45
		c-0.621-0.099-1.27-0.15-1.949-0.15c-1.721,0-3.082,0.24-4.081,0.72c-1,0.48-1.77,1.15-2.31,2.01c-0.54,0.861-0.891,1.89-1.05,3.09
		c-0.16,1.2-0.24,2.52-0.24,3.96v12.18h-9V14.4z"/>
	<path fill="#414042" d="M146.219,23.82c-0.44-0.639-1.061-1.17-1.86-1.59s-1.66-0.63-2.579-0.63c-2.28,0-4.051,0.681-5.311,2.04
		c-1.26,1.36-1.89,3.141-1.89,5.34c0,2.2,0.63,3.98,1.89,5.34c1.26,1.36,3.03,2.04,5.311,2.04c0.999,0,1.859-0.219,2.579-0.66
		c0.721-0.44,1.34-0.96,1.86-1.56l5.94,6.24c-1.401,1.44-3.051,2.451-4.95,3.03c-1.9,0.579-3.711,0.87-5.43,0.87
		c-2.241,0-4.351-0.36-6.33-1.08c-1.98-0.72-3.701-1.75-5.16-3.09c-1.461-1.339-2.61-2.949-3.45-4.83c-0.84-1.88-1.26-3.98-1.26-6.3
		c0-2.319,0.42-4.419,1.26-6.3c0.84-1.88,1.989-3.489,3.45-4.83c1.459-1.34,3.18-2.37,5.16-3.09c1.979-0.72,4.089-1.08,6.33-1.08
		c1.719,0,3.529,0.291,5.43,0.87c1.899,0.58,3.549,1.59,4.95,3.03L146.219,23.82z"/>
	<path fill="#414042" d="M173.7,39.9h-0.12c-1.001,1.56-2.331,2.681-3.99,3.36c-1.66,0.68-3.411,1.02-5.25,1.02
		c-1.36,0-2.67-0.19-3.93-0.57c-1.261-0.379-2.37-0.95-3.33-1.71c-0.96-0.759-1.721-1.7-2.28-2.82c-0.561-1.12-0.84-2.42-0.84-3.9
		c0-1.68,0.31-3.1,0.93-4.26c0.62-1.16,1.46-2.12,2.521-2.88c1.059-0.759,2.27-1.35,3.63-1.77c1.359-0.42,2.77-0.729,4.229-0.93
		c1.46-0.2,2.92-0.319,4.38-0.36c1.46-0.04,2.81-0.06,4.051-0.06c0-1.599-0.57-2.87-1.711-3.81c-1.14-0.939-2.489-1.41-4.05-1.41
		c-1.48,0-2.83,0.31-4.05,0.93c-1.221,0.621-2.31,1.47-3.27,2.55l-4.801-4.92c1.681-1.56,3.64-2.73,5.881-3.51
		c2.239-0.78,4.56-1.17,6.96-1.17c2.64,0,4.809,0.33,6.51,0.99c1.699,0.66,3.06,1.63,4.08,2.91c1.02,1.281,1.729,2.85,2.13,4.71
		c0.399,1.86,0.6,4.011,0.6,6.45v14.82H173.7V39.9z M171.479,30.78c-0.681,0-1.529,0.03-2.55,0.09c-1.02,0.06-2.001,0.23-2.94,0.51
		c-0.939,0.28-1.739,0.701-2.399,1.26c-0.66,0.561-0.99,1.34-0.99,2.34c0,1.08,0.46,1.881,1.38,2.4c0.92,0.521,1.88,0.78,2.88,0.78
		c0.88,0,1.73-0.12,2.551-0.36c0.819-0.24,1.549-0.58,2.189-1.02c0.64-0.44,1.149-1,1.53-1.68c0.38-0.68,0.57-1.479,0.57-2.4v-1.92
		H171.479z"/>
	<path fill="#414042" d="M187.618,14.4h8.641v3.96h0.12c0.279-0.56,0.68-1.119,1.199-1.68c0.52-0.56,1.141-1.06,1.86-1.5
		c0.72-0.44,1.539-0.8,2.46-1.08c0.92-0.279,1.92-0.42,3-0.42c2.04,0,3.85,0.42,5.43,1.26c1.58,0.84,2.77,2.16,3.57,3.96
		c1.04-1.879,2.3-3.219,3.78-4.02c1.479-0.799,3.3-1.2,5.46-1.2c1.959,0,3.609,0.33,4.95,0.99c1.339,0.66,2.399,1.56,3.18,2.7
		s1.34,2.48,1.68,4.02c0.34,1.54,0.51,3.19,0.51,4.95v17.22h-9V26.58c0-1.359-0.29-2.529-0.869-3.51
		c-0.581-0.979-1.611-1.47-3.091-1.47c-1.04,0-1.91,0.17-2.609,0.51c-0.7,0.34-1.26,0.81-1.681,1.41c-0.42,0.6-0.72,1.3-0.899,2.1
		c-0.18,0.801-0.271,1.641-0.271,2.52v15.42h-9V28.14c0-0.52-0.021-1.16-0.06-1.92c-0.04-0.76-0.18-1.479-0.42-2.16
		c-0.24-0.68-0.63-1.26-1.17-1.74c-0.54-0.48-1.33-0.72-2.37-0.72c-1.161,0-2.1,0.21-2.82,0.63c-0.72,0.42-1.271,0.98-1.649,1.68
		c-0.381,0.7-0.63,1.491-0.75,2.37c-0.12,0.88-0.181,1.8-0.181,2.76v14.52h-9V14.4z"/>
	<path fill="#DC4C3F" d="M240.67,37.368c0-0.911,0.167-1.775,0.504-2.592c0.335-0.815,0.803-1.523,1.404-2.124
		c0.6-0.6,1.307-1.067,2.124-1.404c0.815-0.335,1.679-0.504,2.592-0.504c0.911,0,1.775,0.168,2.592,0.504
		c0.815,0.336,1.523,0.804,2.124,1.404c0.6,0.601,1.067,1.309,1.404,2.124c0.335,0.817,0.504,1.681,0.504,2.592
		c0,0.912-0.169,1.776-0.504,2.592c-0.337,0.817-0.805,1.524-1.404,2.124c-0.601,0.601-1.309,1.069-2.124,1.404
		c-0.816,0.335-1.681,0.504-2.592,0.504c-0.913,0-1.776-0.169-2.592-0.504c-0.817-0.335-1.524-0.804-2.124-1.404
		c-0.602-0.6-1.069-1.307-1.404-2.124C240.837,39.145,240.67,38.28,240.67,37.368z"/>
	<path fill="#414042" d="M260.53,5.22c0-1.44,0.51-2.67,1.53-3.69C263.08,0.51,264.31,0,265.75,0c1.44,0,2.67,0.51,3.69,1.53
		c1.02,1.02,1.529,2.25,1.529,3.69s-0.51,2.67-1.529,3.69c-1.021,1.02-2.25,1.53-3.69,1.53c-1.439,0-2.67-0.51-3.689-1.53
		C261.04,7.89,260.53,6.66,260.53,5.22z M261.25,14.4h9v29.16h-9V14.4z"/>
	<path fill="#414042" d="M275.649,28.98c0-2.319,0.42-4.419,1.26-6.3c0.84-1.88,1.99-3.489,3.449-4.83
		c1.461-1.34,3.182-2.37,5.16-3.09c1.98-0.72,4.09-1.08,6.33-1.08s4.352,0.36,6.33,1.08c1.98,0.72,3.699,1.75,5.16,3.09
		c1.461,1.341,2.611,2.95,3.451,4.83c0.84,1.88,1.26,3.98,1.26,6.3c0,2.32-0.42,4.42-1.26,6.3c-0.84,1.88-1.99,3.49-3.451,4.83
		c-1.461,1.341-3.18,2.37-5.16,3.09c-1.979,0.72-4.09,1.08-6.33,1.08s-4.35-0.36-6.33-1.08c-1.979-0.72-3.699-1.75-5.16-3.09
		c-1.459-1.339-2.609-2.949-3.449-4.83C276.069,33.4,275.649,31.3,275.649,28.98z M284.649,28.98c0,2.2,0.631,3.98,1.891,5.34
		c1.26,1.36,3.029,2.04,5.309,2.04c2.281,0,4.051-0.68,5.311-2.04c1.26-1.359,1.891-3.14,1.891-5.34c0-2.199-0.631-3.979-1.891-5.34
		c-1.26-1.359-3.029-2.04-5.311-2.04c-2.279,0-4.049,0.681-5.309,2.04C285.28,25,284.649,26.781,284.649,28.98z"/>
</g>
</svg>
